<svg xmlns="http://www.w3.org/2000/svg" width="900" height="620" viewBox="0 0 900 620">
<defs><linearGradient id="b" x1="0" x2="1"><stop stop-color="#080f1f"/><stop offset="1" stop-color="#111827"/></linearGradient><linearGradient id="p" x1="0" x2="1"><stop stop-color="#1f2937"/><stop offset="1" stop-color="#64748b"/></linearGradient></defs>
<rect width="900" height="620" rx="34" fill="url(#b)"/><rect x="470" y="80" width="300" height="260" rx="18" fill="#101827" stroke="#ef4444" stroke-width="8"/><text x="505" y="150" fill="#fff" font-family="Arial" font-size="46" font-weight="800">SEVRA</text><text x="505" y="210" fill="#fff" font-family="Arial" font-size="36" font-weight="800">PREMIUM</text><text x="505" y="258" fill="#ef4444" font-family="Arial" font-size="38" font-weight="800">BRAKE PADS</text><g transform="translate(118,260) rotate(-9)"><path d="M45 40 C80 0 240 0 275 40 L320 240 C330 290 280 330 225 310 L95 310 C40 330 -10 290 0 240 Z" fill="url(#p)" stroke="#cbd5e1" stroke-width="5"/><path d="M68 70 C95 45 225 45 252 70 L292 230 C300 260 275 280 245 270 L75 270 C45 280 20 260 28 230 Z" fill="#374151"/></g><g transform="translate(340,295) rotate(12)"><path d="M45 40 C80 0 240 0 275 40 L320 240 C330 290 280 330 225 310 L95 310 C40 330 -10 290 0 240 Z" fill="url(#p)" stroke="#cbd5e1" stroke-width="5"/><path d="M68 70 C95 45 225 45 252 70 L292 230 C300 260 275 280 245 270 L75 270 C45 280 20 260 28 230 Z" fill="#374151"/></g><text x="70" y="572" fill="#94a3b8" font-family="Arial" font-size="24">Güvenli frenleme için yüksek performans</text></svg>